<svg width="166.000000" height="230.000000" viewBox="0 0 166 230" fill="none" xmlns="http://www.w3.org/2000/svg" xmlns:xlink="http://www.w3.org/1999/xlink">
	<desc>
			Created with Pixso.
	</desc>
	<defs>
		<filter id="filter_695_16917_dd" x="0.000000" y="0.000000" width="166.000000" height="230.000000" filterUnits="userSpaceOnUse" color-interpolation-filters="sRGB">
			<feFlood flood-opacity="0" result="BackgroundImageFix"/>
			<feColorMatrix in="SourceAlpha" type="matrix" values="0 0 0 0 0 0 0 0 0 0 0 0 0 0 0 0 0 0 127 0" result="hardAlpha"/>
			<feOffset dx="0" dy="0"/>
			<feGaussianBlur stdDeviation="0"/>
			<feComposite in2="hardAlpha" operator="out" k2="-1" k3="1"/>
			<feColorMatrix type="matrix" values="0 0 0 0 1 0 0 0 0 0.80784 0 0 0 0 0.36078 0 0 0 0.1 0"/>
			<feBlend mode="normal" in2="BackgroundImageFix" result="effect_dropShadow_1"/>
			<feColorMatrix in="SourceAlpha" type="matrix" values="0 0 0 0 0 0 0 0 0 0 0 0 0 0 0 0 0 0 127 0" result="hardAlpha"/>
			<feOffset dx="0" dy="3"/>
			<feGaussianBlur stdDeviation="2.33333"/>
			<feComposite in2="hardAlpha" operator="out" k2="-1" k3="1"/>
			<feColorMatrix type="matrix" values="0 0 0 0 1 0 0 0 0 0.80784 0 0 0 0 0.36078 0 0 0 0.1 0"/>
			<feBlend mode="normal" in2="effect_dropShadow_1" result="effect_dropShadow_2"/>
			<feColorMatrix in="SourceAlpha" type="matrix" values="0 0 0 0 0 0 0 0 0 0 0 0 0 0 0 0 0 0 127 0" result="hardAlpha"/>
			<feOffset dx="0" dy="13"/>
			<feGaussianBlur stdDeviation="4.33333"/>
			<feComposite in2="hardAlpha" operator="out" k2="-1" k3="1"/>
			<feColorMatrix type="matrix" values="0 0 0 0 1 0 0 0 0 0.80784 0 0 0 0 0.36078 0 0 0 0.09 0"/>
			<feBlend mode="normal" in2="effect_dropShadow_2" result="effect_dropShadow_3"/>
			<feColorMatrix in="SourceAlpha" type="matrix" values="0 0 0 0 0 0 0 0 0 0 0 0 0 0 0 0 0 0 127 0" result="hardAlpha"/>
			<feOffset dx="0" dy="30"/>
			<feGaussianBlur stdDeviation="6"/>
			<feComposite in2="hardAlpha" operator="out" k2="-1" k3="1"/>
			<feColorMatrix type="matrix" values="0 0 0 0 1 0 0 0 0 0.80784 0 0 0 0 0.36078 0 0 0 0.051 0"/>
			<feBlend mode="normal" in2="effect_dropShadow_3" result="effect_dropShadow_4"/>
			<feColorMatrix in="SourceAlpha" type="matrix" values="0 0 0 0 0 0 0 0 0 0 0 0 0 0 0 0 0 0 127 0" result="hardAlpha"/>
			<feOffset dx="0" dy="53"/>
			<feGaussianBlur stdDeviation="7"/>
			<feComposite in2="hardAlpha" operator="out" k2="-1" k3="1"/>
			<feColorMatrix type="matrix" values="0 0 0 0 1 0 0 0 0 0.80784 0 0 0 0 0.36078 0 0 0 0.012 0"/>
			<feBlend mode="normal" in2="effect_dropShadow_4" result="effect_dropShadow_5"/>
			<feColorMatrix in="SourceAlpha" type="matrix" values="0 0 0 0 0 0 0 0 0 0 0 0 0 0 0 0 0 0 127 0" result="hardAlpha"/>
			<feOffset dx="0" dy="83"/>
			<feGaussianBlur stdDeviation="7.66667"/>
			<feComposite in2="hardAlpha" operator="out" k2="-1" k3="1"/>
			<feColorMatrix type="matrix" values="0 0 0 0 1 0 0 0 0 0.80784 0 0 0 0 0.36078 0 0 0 0 0"/>
			<feBlend mode="normal" in2="effect_dropShadow_5" result="effect_dropShadow_6"/>
			<feBlend mode="normal" in="SourceGraphic" in2="effect_dropShadow_6" result="shape"/>
		</filter>
	</defs>
	<g filter="url(#filter_695_16917_dd)">
		<rect id="Emotion" rx="60.000000" width="120.000000" height="120.000000" transform="translate(23.000000 4.000000)" fill="#FFCE5C" fill-opacity="1.000000"/>
		<path id="Vector" d="M113 39C115.76 39 118 41.23 118 44L118 59C118 61.76 115.76 64 113 64C110.23 64 108 61.76 108 59L108 44C108 41.23 110.23 39 113 39Z" fill="#4B3425" fill-opacity="1.000000" fill-rule="evenodd"/>
		<path id="Vector" d="M53 39C55.76 39 58 41.23 58 44L58 59C58 61.76 55.76 64 53 64C50.23 64 48 61.76 48 59L48 44C48 41.23 50.23 39 53 39Z" fill="#4B3425" fill-opacity="1.000000" fill-rule="evenodd"/>
		<path id="Vector" d="M48 84C48 81.23 50.23 79 53 79L113 79C115.76 79 118 81.23 118 84C118 86.76 115.76 89 113 89L53 89C50.23 89 48 86.76 48 84Z" fill="#4B3425" fill-opacity="1.000000" fill-rule="evenodd"/>
	</g>
</svg>
