<?xml version="1.0" standalone="no"?><!DOCTYPE svg PUBLIC "-//W3C//DTD SVG 1.1//EN" "http://www.w3.org/Graphics/SVG/1.1/DTD/svg11.dtd"><svg class="icon" width="32px" height="32.00px" viewBox="0 0 1024 1024" version="1.1" xmlns="http://www.w3.org/2000/svg"><path fill="#1296db" d="M440 112m72 0l0 0q72 0 72 72l0 0q0 72-72 72l0 0q-72 0-72-72l0 0q0-72 72-72Z"  /><path fill="#1296db" d="M440 440m72 0l0 0q72 0 72 72l0 0q0 72-72 72l0 0q-72 0-72-72l0 0q0-72 72-72Z"  /><path fill="#1296db" d="M440 768m72 0l0 0q72 0 72 72l0 0q0 72-72 72l0 0q-72 0-72-72l0 0q0-72 72-72Z"  /></svg>