<?xml version="1.0" standalone="no"?><!DOCTYPE svg PUBLIC "-//W3C//DTD SVG 1.1//EN" "http://www.w3.org/Graphics/SVG/1.1/DTD/svg11.dtd"><svg class="icon" width="32px" height="32.00px" viewBox="0 0 1024 1024" version="1.1" xmlns="http://www.w3.org/2000/svg"><path fill="#1296db" d="M511.87 113.99c54.03 0 106.41 10.57 155.67 31.4 47.62 20.14 90.41 49 127.17 85.76 36.76 36.76 65.61 79.55 85.76 127.17 20.84 49.26 31.4 101.64 31.4 155.67s-10.57 106.41-31.4 155.67c-20.14 47.62-48.99 90.41-85.76 127.17-36.76 36.76-79.55 65.61-127.17 85.76-49.26 20.84-101.64 31.4-155.67 31.4s-106.41-10.57-155.67-31.4c-47.62-20.14-90.41-48.99-127.17-85.76-36.76-36.76-65.61-79.55-85.76-127.17-20.84-49.26-31.4-101.64-31.4-155.67s10.57-106.41 31.4-155.67c20.14-47.62 49-90.41 85.76-127.17 36.76-36.76 79.55-65.61 127.17-85.76 49.26-20.84 101.63-31.4 155.67-31.4m0-80c-265.1 0-480 214.9-480 480s214.9 480 480 480 480-214.9 480-480-214.91-480-480-480z"  /><path fill="#1296db" d="M344.45 513.99m-40 0a40 40 0 1 0 80 0 40 40 0 1 0-80 0Z"  /><path fill="#1296db" d="M681.55 513.99m-40 0a40 40 0 1 0 80 0 40 40 0 1 0-80 0Z"  /><path fill="#1296db" d="M513 513.99m-40 0a40 40 0 1 0 80 0 40 40 0 1 0-80 0Z"  /></svg>