<svg width="52.500000" height="37.500000" viewBox="0 0 52.5 37.5" fill="none" xmlns="http://www.w3.org/2000/svg" xmlns:xlink="http://www.w3.org/1999/xlink">
	<desc>
			Created with Pixso.
	</desc>
	<defs/>
	<path id="Vector Stroke" d="M48.75 0C50.82 0 52.5 1.67 52.5 3.75L52.5 15C52.5 17.07 50.82 18.75 48.75 18.75C46.67 18.75 45 17.07 45 15L45 3.75C45 1.67 46.67 0 48.75 0Z" fill="#A37A00" fill-opacity="1.000000" fill-rule="evenodd"/>
	<path id="Vector Stroke" d="M3.75 0C5.82 0 7.5 1.67 7.5 3.75L7.5 15C7.5 17.07 5.82 18.75 3.75 18.75C1.67 18.75 0 17.07 0 15L0 3.75C0 1.67 1.67 0 3.75 0Z" fill="#A37A00" fill-opacity="1.000000" fill-rule="evenodd"/>
	<path id="Vector Stroke" d="M0 33.75C0 31.67 1.67 30 3.75 30L48.75 30C50.82 30 52.5 31.67 52.5 33.75C52.5 35.82 50.82 37.5 48.75 37.5L3.75 37.5C1.67 37.5 0 35.82 0 33.75Z" fill="#A37A00" fill-opacity="1.000000" fill-rule="evenodd"/>
</svg>
