<svg width="74.461670" height="68.971497" viewBox="0 0 74.4617 68.9715" fill="none" xmlns="http://www.w3.org/2000/svg" xmlns:xlink="http://www.w3.org/1999/xlink">
	<desc>
			Created with Pixso.
	</desc>
	<defs/>
	<path id="Vector Stroke" d="M60.56 22.96C62.02 23.15 63.43 23.63 64.71 24.37C65.99 25.11 67.11 26.09 68.01 27.26C68.91 28.44 69.57 29.77 69.96 31.2C70.34 32.63 70.44 34.12 70.24 35.58C70.05 37.05 69.57 38.46 68.83 39.74C67.8 41.53 65.5 42.15 63.71 41.11C61.92 40.07 61.3 37.78 62.34 35.99C62.58 35.56 62.74 35.09 62.81 34.6C62.87 34.11 62.84 33.62 62.71 33.14C62.58 32.67 62.36 32.22 62.06 31.83C61.76 31.44 61.39 31.11 60.96 30.87C60.54 30.62 60.07 30.46 59.58 30.39C59.09 30.33 58.59 30.36 58.12 30.49C57.64 30.62 57.2 30.84 56.81 31.14C56.42 31.44 56.09 31.81 55.84 32.24C54.81 34.03 52.51 34.65 50.72 33.61C48.93 32.57 48.31 30.28 49.35 28.49C50.09 27.21 51.07 26.09 52.24 25.19C53.41 24.29 54.75 23.63 56.18 23.25C57.6 22.86 59.09 22.77 60.56 22.96Z" fill="#5A6B38" fill-opacity="1.000000" fill-rule="evenodd"/>
	<path id="Vector Stroke" d="M53.14 45.09C54.6 46.55 54.6 48.93 53.14 50.39C49.63 53.89 45.07 56.14 40.16 56.79C35.25 57.44 30.27 56.44 25.98 53.97C21.69 51.49 18.33 47.67 16.44 43.09C14.54 38.52 14.21 33.44 15.49 28.66C16.03 26.66 18.08 25.47 20.09 26.01C22.09 26.54 23.27 28.6 22.74 30.6C21.88 33.79 22.1 37.17 23.37 40.22C24.63 43.27 26.87 45.82 29.73 47.47C32.59 49.12 35.91 49.78 39.18 49.35C42.46 48.92 45.5 47.42 47.83 45.09C49.3 43.62 51.67 43.62 53.14 45.09Z" fill="#5A6B38" fill-opacity="1.000000" fill-rule="evenodd"/>
	<path id="Vector Stroke" d="M28.08 4.21C29.55 4.4 30.96 4.88 32.24 5.62C33.52 6.36 34.64 7.34 35.54 8.51C36.44 9.69 37.1 11.02 37.48 12.45C37.86 13.88 37.96 15.37 37.77 16.83C37.57 18.3 37.09 19.71 36.36 20.99C35.32 22.78 33.03 23.4 31.23 22.36C29.44 21.32 28.83 19.03 29.86 17.24C30.11 16.81 30.27 16.34 30.33 15.85C30.4 15.36 30.36 14.87 30.24 14.39C30.11 13.92 29.89 13.47 29.59 13.08C29.29 12.69 28.91 12.36 28.49 12.12C28.06 11.87 27.59 11.71 27.1 11.64C26.61 11.58 26.12 11.61 25.64 11.74C25.17 11.87 24.72 12.09 24.33 12.39C23.94 12.69 23.61 13.06 23.37 13.49C22.33 15.28 20.04 15.9 18.24 14.86C16.45 13.82 15.83 11.53 16.87 9.74C17.61 8.46 18.59 7.34 19.76 6.44C20.94 5.54 22.27 4.88 23.7 4.5C25.13 4.11 26.62 4.02 28.08 4.21Z" fill="#5A6B38" fill-opacity="1.000000" fill-rule="evenodd"/>
</svg>
