<svg width="67.415283" height="64.266907" viewBox="0 0 67.4153 64.2669" fill="none" xmlns="http://www.w3.org/2000/svg" xmlns:xlink="http://www.w3.org/1999/xlink">
	<desc>
			Created with Pixso.
	</desc>
	<defs/>
	<path id="Vector Stroke" d="M24.44 43.48C26.34 38.9 29.69 35.08 33.98 32.61C38.27 30.13 43.25 29.14 48.17 29.78C53.08 30.43 57.64 32.68 61.14 36.18C62.6 37.65 62.6 40.02 61.14 41.48C59.67 42.95 57.3 42.95 55.84 41.48C53.5 39.15 50.46 37.65 47.19 37.22C43.91 36.79 40.59 37.45 37.73 39.1C34.87 40.75 32.63 43.3 31.37 46.35C30.11 49.4 29.88 52.78 30.74 55.97C31.28 57.97 30.09 60.03 28.09 60.57C26.09 61.1 24.03 59.92 23.5 57.91C22.21 53.13 22.55 48.06 24.44 43.48Z" fill="#A23901" fill-opacity="1.000000" fill-rule="evenodd"/>
	<path id="Vector Stroke" d="M3.24 24.37C5.04 23.33 7.33 23.95 8.37 25.74L13.99 35.49C15.03 37.28 14.41 39.57 12.62 40.61C10.82 41.64 8.53 41.03 7.5 39.24L1.87 29.49C0.83 27.7 1.45 25.41 3.24 24.37Z" fill="#A23901" fill-opacity="1.000000" fill-rule="evenodd"/>
	<path id="Vector Stroke" d="M42.21 1.87C44.01 0.83 46.3 1.45 47.34 3.24L52.96 12.99C54 14.78 53.38 17.07 51.59 18.11C49.8 19.14 47.5 18.53 46.47 16.74L40.84 6.99C39.81 5.2 40.42 2.91 42.21 1.87Z" fill="#A23901" fill-opacity="1.000000" fill-rule="evenodd"/>
</svg>
