<svg width="200.000000" height="200.000000" viewBox="0 0 200 200" fill="none" xmlns="http://www.w3.org/2000/svg" xmlns:xlink="http://www.w3.org/1999/xlink">
	<desc>
			Created with Pixso.
	</desc>
	<defs>
		<linearGradient x1="100.000000" y1="0.000000" x2="100.000000" y2="200.000000" id="paint_linear_13_1647_0" gradientUnits="userSpaceOnUse">
			<stop stop-color="#FFBF0B" stop-opacity="0.000000"/>
			<stop offset="1.000000" stop-color="#FFBF0B"/>
		</linearGradient>
		<linearGradient x1="100.000000" y1="0.000000" x2="100.000000" y2="109.552361" id="paint_linear_13_1648_0" gradientUnits="userSpaceOnUse">
			<stop stop-color="#56E1FC"/>
			<stop offset="0.462184" stop-color="#67AFFF" stop-opacity="0.800000"/>
			<stop offset="1.000000" stop-color="#C8E3FF" stop-opacity="0.000000"/>
		</linearGradient>
	</defs>
	<g style="mix-blend-mode:normal">
		<g style="mix-blend-mode:normal">
			<circle id="椭圆形备份 69" cx="100.000000" cy="100.000000" r="100.000000" fill="url(#paint_linear_13_1647_0)" fill-opacity="1.000000"/>
			<circle id="椭圆形备份 69" cx="100.000000" cy="100.000000" r="100.000000" stroke="#969696" stroke-opacity="0" stroke-width="1.000000"/>
		</g>
		<g style="mix-blend-mode:normal">
			<circle id="椭圆形备份 69" cx="100.000000" cy="100.000000" r="100.000000" fill="url(#paint_linear_13_1648_0)" fill-opacity="1.000000"/>
			<circle id="椭圆形备份 69" cx="100.000000" cy="100.000000" r="100.000000" stroke="#969696" stroke-opacity="0" stroke-width="1.000000"/>
		</g>
		<g style="mix-blend-mode:normal">
			<path id="矩形备份 60" d="M114.92 53.26C116.92 55.35 120.73 58.96 125.6 61.78C130.51 64.61 135.89 66.28 138.89 67.07C140.23 67.42 141.58 66.64 142 65.31C142.49 63.81 141.6 62.18 140.1 61.69C137.38 60.79 133.02 59.13 128.59 56.58C124.36 54.13 121.08 51.45 119.09 49.65C117.89 48.56 115.98 48.59 114.91 49.8C114.02 50.8 114 52.29 114.92 53.26Z" fill="#1A1B54" fill-opacity="1.000000" fill-rule="evenodd"/>
			<path id="矩形备份 60" d="M125.6 61.78C130.51 64.61 135.89 66.28 138.89 67.07C140.23 67.42 141.58 66.64 142 65.31C142.49 63.81 141.6 62.18 140.1 61.69C137.38 60.79 133.02 59.13 128.59 56.58C124.36 54.13 121.08 51.45 119.09 49.65C117.89 48.56 115.98 48.59 114.91 49.8C114.02 50.8 114 52.29 114.92 53.26C116.92 55.35 120.73 58.96 125.6 61.78Z" stroke="#969696" stroke-opacity="0" stroke-width="1.000000"/>
		</g>
		<g style="mix-blend-mode:normal">
			<path id="矩形备份 61" d="M83.95 53.26C81.96 55.35 78.15 58.96 73.28 61.78C68.37 64.61 62.99 66.28 59.99 67.07C58.64 67.42 57.3 66.64 56.87 65.31C56.39 63.81 57.27 62.18 58.78 61.69C61.5 60.79 65.86 59.13 70.28 56.58C74.52 54.13 77.79 51.45 79.78 49.65C80.98 48.56 82.89 48.59 83.97 49.8C84.85 50.8 84.87 52.29 83.95 53.26Z" fill="#1A1B54" fill-opacity="1.000000" fill-rule="evenodd"/>
			<path id="矩形备份 61" d="M73.28 61.78C68.37 64.61 62.99 66.28 59.99 67.07C58.64 67.42 57.3 66.64 56.87 65.31C56.39 63.81 57.27 62.18 58.78 61.69C61.5 60.79 65.86 59.13 70.28 56.58C74.52 54.13 77.79 51.45 79.78 49.65C80.98 48.56 82.89 48.59 83.97 49.8C84.85 50.8 84.87 52.29 83.95 53.26C81.96 55.35 78.15 58.96 73.28 61.78Z" stroke="#969696" stroke-opacity="0" stroke-width="1.000000"/>
		</g>
		<g style="mix-blend-mode:normal">
			<path id="矩形备份 74" d="M88.84 136.34C94.03 135.96 100.37 135.62 106.43 135.62C112.55 135.62 118.65 135.97 123.51 136.35C129.61 136.83 136.56 131.28 130.97 128.81C125.18 126.26 114.38 124 106.43 124C98.48 124 87.65 125.45 79.58 128.81C72.95 131.57 81.68 136.86 88.84 136.34Z" fill="#1A1B54" fill-opacity="1.000000" fill-rule="evenodd"/>
			<path id="矩形备份 74" d="M106.43 135.62C112.55 135.62 118.65 135.97 123.51 136.35C129.61 136.83 136.56 131.28 130.97 128.81C125.18 126.26 114.38 124 106.43 124C98.48 124 87.65 125.45 79.58 128.81C72.95 131.57 81.68 136.86 88.84 136.34C94.03 135.96 100.37 135.62 106.43 135.62Z" stroke="#969696" stroke-opacity="0" stroke-width="1.000000"/>
		</g>
		<g style="mix-blend-mode:normal">
			<g style="mix-blend-mode:normal">
				<path id="椭圆形" d="M63.09 81.7C76.82 80.5 87.36 83.11 87.99 79.98C88.61 76.86 75.9 70.06 62.17 71.26C48.44 72.46 37.18 81.45 38.27 84.33C39.36 87.22 49.36 82.91 63.09 81.7Z" fill="#1A1B54" fill-opacity="1.000000" fill-rule="evenodd"/>
				<path id="椭圆形" d="M87.99 79.98C88.61 76.86 75.9 70.06 62.17 71.26C48.44 72.46 37.18 81.45 38.27 84.33C39.36 87.22 49.36 82.91 63.09 81.7C76.82 80.5 87.36 83.11 87.99 79.98Z" stroke="#969696" stroke-opacity="0" stroke-width="1.000000"/>
			</g>
		</g>
		<g style="mix-blend-mode:normal">
			<g style="mix-blend-mode:normal">
				<path id="矩形" d="M151.27 87.68C153.61 85.34 157.4 85.34 159.74 87.68C162.09 90.02 162.09 93.83 159.74 96.17L124.29 131.53C123.7 132.12 122.89 132.44 122.06 132.4L107 131.83L151.27 87.68Z" fill="#FFFDFE" fill-opacity="1.000000" fill-rule="evenodd"/>
				<path id="矩形" d="M124.29 131.53C123.7 132.12 122.89 132.44 122.06 132.4L107 131.83L151.27 87.68C153.61 85.34 157.4 85.34 159.74 87.68C162.09 90.02 162.09 93.83 159.74 96.17L124.29 131.53Z" stroke="#969696" stroke-opacity="0" stroke-width="1.000000"/>
			</g>
			<g style="mix-blend-mode:normal">
				<path id="矩形" d="M152.12 99.03C153.15 98 153.15 96.32 152.12 95.29C151.09 94.27 149.44 94.27 148.41 95.28L111 132.18L118.52 132.45L152.12 99.03Z" fill="#FF4E90" fill-opacity="1.000000" fill-rule="evenodd"/>
				<path id="矩形" d="M111 132.18L118.52 132.45L152.12 99.03C153.15 98 153.15 96.32 152.12 95.29C151.09 94.27 149.44 94.27 148.41 95.28L111 132.18Z" stroke="#969696" stroke-opacity="0" stroke-width="1.000000"/>
			</g>
			<g style="mix-blend-mode:normal">
				<path id="矩形" d="M120.92 117.95L122.33 116.54L124.45 118.66C124.85 119.05 124.85 119.68 124.45 120.07C124.06 120.46 123.43 120.46 123.04 120.07L120.92 117.95Z" fill="#1A1B54" fill-opacity="1.000000" fill-rule="evenodd"/>
				<path id="矩形" d="M122.33 116.54L124.45 118.66C124.85 119.05 124.85 119.68 124.45 120.07C124.06 120.46 123.43 120.46 123.04 120.07L120.92 117.95L122.33 116.54Z" stroke="#969696" stroke-opacity="0" stroke-width="1.000000"/>
			</g>
			<g style="mix-blend-mode:normal">
				<path id="矩形备份 63" d="M130.75 108.13L132.17 106.72L134.29 108.84C134.68 109.23 134.68 109.86 134.29 110.25C133.9 110.64 133.27 110.64 132.87 110.25L130.75 108.13Z" fill="#1A1B54" fill-opacity="1.000000" fill-rule="evenodd"/>
				<path id="矩形备份 63" d="M132.17 106.72L134.29 108.84C134.68 109.23 134.68 109.86 134.29 110.25C133.9 110.64 133.27 110.64 132.87 110.25L130.75 108.13L132.17 106.72Z" stroke="#969696" stroke-opacity="0" stroke-width="1.000000"/>
			</g>
			<g style="mix-blend-mode:normal">
				<path id="矩形备份 62" d="M125.82 113.04L127.24 111.62L129.36 113.74C129.75 114.13 129.75 114.77 129.36 115.16C128.97 115.55 128.33 115.55 127.94 115.16L125.82 113.04Z" fill="#1A1B54" fill-opacity="1.000000" fill-rule="evenodd"/>
				<path id="矩形备份 62" d="M127.24 111.62L129.36 113.74C129.75 114.13 129.75 114.77 129.36 115.16C128.97 115.55 128.33 115.55 127.94 115.16L125.82 113.04L127.24 111.62Z" stroke="#969696" stroke-opacity="0" stroke-width="1.000000"/>
			</g>
			<g style="mix-blend-mode:normal">
				<path id="矩形备份 64" d="M135.68 103.22L137.09 101.81L139.22 103.93C139.61 104.32 139.61 104.95 139.22 105.34C138.83 105.73 138.19 105.73 137.8 105.34L135.68 103.22Z" fill="#1A1B54" fill-opacity="1.000000" fill-rule="evenodd"/>
				<path id="矩形备份 64" d="M137.09 101.81L139.22 103.93C139.61 104.32 139.61 104.95 139.22 105.34C138.83 105.73 138.19 105.73 137.8 105.34L135.68 103.22L137.09 101.81Z" stroke="#969696" stroke-opacity="0" stroke-width="1.000000"/>
			</g>
			<g style="mix-blend-mode:normal">
				<path id="矩形备份 65" d="M140.71 98.21L142.12 96.79L144.24 98.91C144.63 99.3 144.63 99.94 144.24 100.33C143.85 100.72 143.22 100.72 142.83 100.33L140.71 98.21Z" fill="#1A1B54" fill-opacity="1.000000" fill-rule="evenodd"/>
				<path id="矩形备份 65" d="M142.12 96.79L144.24 98.91C144.63 99.3 144.63 99.94 144.24 100.33C143.85 100.72 143.22 100.72 142.83 100.33L140.71 98.21L142.12 96.79Z" stroke="#969696" stroke-opacity="0" stroke-width="1.000000"/>
			</g>
		</g>
		<g style="mix-blend-mode:normal">
			<g style="mix-blend-mode:normal">
				<path id="椭圆形" d="M138.33 81.7C124.6 80.5 114.05 83.11 113.43 79.98C112.8 76.86 125.51 70.06 139.24 71.26C152.97 72.46 164.24 81.45 163.15 84.33C162.06 87.22 152.06 82.91 138.33 81.7Z" fill="#1A1B54" fill-opacity="1.000000" fill-rule="evenodd"/>
				<path id="椭圆形" d="M113.43 79.98C112.8 76.86 125.51 70.06 139.24 71.26C152.97 72.46 164.24 81.45 163.15 84.33C162.06 87.22 152.06 82.91 138.33 81.7C124.6 80.5 114.05 83.11 113.43 79.98Z" stroke="#969696" stroke-opacity="0" stroke-width="1.000000"/>
			</g>
		</g>
		<g style="mix-blend-mode:normal">
			<mask id="mask_13_1666" fill="white">
				<path id="形状结合" d="M101.112 0.00610352C114.306 0.149841 126.887 2.84888 138.384 7.63171C139.276 9.02161 139.878 10.6236 140.119 12.3395L141.787 24.2303C142.896 32.1301 136.119 38.9609 128.174 38.2388C120.011 37.4968 109.658 36.8018 99.5131 36.8018C89.7946 36.8018 80.0782 37.4397 72.3004 38.1456C64.213 38.8797 57.3353 31.8216 58.6439 23.8071L60.6779 11.3497C60.9059 9.95236 61.3734 8.63776 62.0389 7.45691C73.6508 2.68872 86.358 0.0424805 99.6786 0.000549316C99.7386 0.000366211 99.799 0.000244141 99.859 0.00012207C100.279 0.000610352 100.696 0.00256348 101.112 0.00610352Z" clip-rule="evenodd" fill="" fill-opacity="1.000000" fill-rule="evenodd"/>
			</mask>
			<path id="形状结合" d="M101.112 0.00610352C114.306 0.149841 126.887 2.84888 138.384 7.63171C139.276 9.02161 139.878 10.6236 140.119 12.3395L141.787 24.2303C142.896 32.1301 136.119 38.9609 128.174 38.2388C120.011 37.4968 109.658 36.8018 99.5131 36.8018C89.7946 36.8018 80.0782 37.4397 72.3004 38.1456C64.213 38.8797 57.3353 31.8216 58.6439 23.8071L60.6779 11.3497C60.9059 9.95236 61.3734 8.63776 62.0389 7.45691C73.6508 2.68872 86.358 0.0424805 99.6786 0.000549316C99.7386 0.000366211 99.799 0.000244141 99.859 0.00012207C100.279 0.000610352 100.696 0.00256348 101.112 0.00610352Z" clip-rule="evenodd" fill="#FFFFFF" fill-opacity="1.000000" fill-rule="evenodd" mask="url(#mask_13_1666)"/>
			<path id="形状结合" d="" fill="#969696" fill-opacity="0.000000" fill-rule="nonzero"/>
		</g>
	</g>
</svg>
