<svg width="48.000000" height="48.000000" viewBox="0 0 48 48" fill="none" xmlns="http://www.w3.org/2000/svg" xmlns:xlink="http://www.w3.org/1999/xlink">
	<desc>
			Created with Pixso.
	</desc>
	<defs/>
	<rect id="Solid mood sad" rx="24.000000" width="48.000000" height="48.000000" fill="#FE814B" fill-opacity="1.000000"/>
	<path id="Vector" d="M16.69 28.47C18.79 26.87 21.35 26 24 26C26.64 26 29.2 26.87 31.3 28.47C33.4 30.08 34.9 32.34 35.59 34.89C35.87 35.96 35.24 37.05 34.17 37.34C33.11 37.62 32.01 36.99 31.72 35.92C31.27 34.22 30.26 32.72 28.87 31.65C27.47 30.58 25.76 30 24 30C22.23 30 20.52 30.58 19.12 31.65C17.73 32.72 16.72 34.22 16.27 35.92C15.98 36.99 14.89 37.62 13.82 37.34C12.75 37.05 12.12 35.96 12.4 34.89C13.09 32.34 14.59 30.08 16.69 28.47Z" fill="#702901" fill-opacity="1.000000" fill-rule="evenodd"/>
	<path id="Vector" d="M12 14C13.1 14 14 14.89 14 16L14 22C14 23.1 13.1 24 12 24C10.89 24 10 23.1 10 22L10 16C10 14.89 10.89 14 12 14Z" fill="#702901" fill-opacity="1.000000" fill-rule="evenodd"/>
	<path id="Vector" d="M36 14C37.1 14 38 14.89 38 16L38 22C38 23.1 37.1 24 36 24C34.89 24 34 23.1 34 22L34 16C34 14.89 34.89 14 36 14Z" fill="#702901" fill-opacity="1.000000" fill-rule="evenodd"/>
</svg>
