<svg width="48.000000" height="48.000000" viewBox="0 0 48 48" fill="none" xmlns="http://www.w3.org/2000/svg" xmlns:xlink="http://www.w3.org/1999/xlink">
	<desc>
			Created with Pixso.
	</desc>
	<defs/>
	<rect id="Solid mood neutral" rx="24.000000" width="48.000000" height="48.000000" fill="#BDA193" fill-opacity="1.000000"/>
	<path id="Vector" d="M36 14C37.1 14 38 14.89 38 16L38 22C38 23.1 37.1 24 36 24C34.89 24 34 23.1 34 22L34 16C34 14.89 34.89 14 36 14Z" fill="#4B3425" fill-opacity="1.000000" fill-rule="evenodd"/>
	<path id="Vector" d="M12 14C13.1 14 14 14.89 14 16L14 22C14 23.1 13.1 24 12 24C10.89 24 10 23.1 10 22L10 16C10 14.89 10.89 14 12 14Z" fill="#4B3425" fill-opacity="1.000000" fill-rule="evenodd"/>
	<path id="Vector" d="M10 32C10 30.89 10.89 30 12 30L36 30C37.1 30 38 30.89 38 32C38 33.1 37.1 34 36 34L12 34C10.89 34 10 33.1 10 32Z" fill="#4B3425" fill-opacity="1.000000" fill-rule="evenodd"/>
</svg>
