<svg width="48.000000" height="48.000000" viewBox="0 0 48 48" fill="none" xmlns="http://www.w3.org/2000/svg" xmlns:xlink="http://www.w3.org/1999/xlink">
	<desc>
			Created with Pixso.
	</desc>
	<defs/>
	<rect id="Solid mood depressed" rx="24.000000" width="48.000000" height="48.000000" fill="#A28FFF" fill-opacity="1.000000"/>
	<path id="Vector" d="M30.58 12.58C31.36 11.8 32.63 11.8 33.41 12.58L39.41 18.58C40.19 19.36 40.19 20.63 39.41 21.41C38.63 22.19 37.36 22.19 36.58 21.41L30.58 15.41C29.8 14.63 29.8 13.36 30.58 12.58Z" fill="#1C0070" fill-opacity="1.000000" fill-rule="evenodd"/>
	<path id="Vector" d="M39.41 12.58C40.19 13.36 40.19 14.63 39.41 15.41L33.41 21.41C32.63 22.19 31.36 22.19 30.58 21.41C29.8 20.63 29.8 19.36 30.58 18.58L36.58 12.58C37.36 11.8 38.63 11.8 39.41 12.58Z" fill="#1C0070" fill-opacity="1.000000" fill-rule="evenodd"/>
	<path id="Vector" d="M8.58 12.58C9.36 11.8 10.63 11.8 11.41 12.58L17.41 18.58C18.19 19.36 18.19 20.63 17.41 21.41C16.63 22.19 15.36 22.19 14.58 21.41L8.58 15.41C7.8 14.63 7.8 13.36 8.58 12.58Z" fill="#1C0070" fill-opacity="1.000000" fill-rule="evenodd"/>
	<path id="Vector" d="M17.41 12.58C18.19 13.36 18.19 14.63 17.41 15.41L11.41 21.41C10.63 22.19 9.36 22.19 8.58 21.41C7.8 20.63 7.8 19.36 8.58 18.58L14.58 12.58C15.36 11.8 16.63 11.8 17.41 12.58Z" fill="#1C0070" fill-opacity="1.000000" fill-rule="evenodd"/>
	<path id="Vector" d="M16.69 28.47C18.79 26.87 21.35 26 24 26C26.64 26 29.2 26.87 31.3 28.47C33.4 30.08 34.9 32.34 35.59 34.89C35.87 35.96 35.24 37.05 34.17 37.34C33.11 37.62 32.01 36.99 31.72 35.92C31.27 34.22 30.26 32.72 28.87 31.65C27.47 30.58 25.76 30 24 30C22.23 30 20.52 30.58 19.12 31.65C17.73 32.72 16.72 34.22 16.27 35.92C15.98 36.99 14.89 37.62 13.82 37.34C12.75 37.05 12.12 35.96 12.4 34.89C13.09 32.34 14.59 30.08 16.69 28.47Z" fill="#1C0070" fill-opacity="1.000000" fill-rule="evenodd"/>
</svg>
