<svg width="48.000000" height="48.000000" viewBox="0 0 48 48" fill="none" xmlns="http://www.w3.org/2000/svg" xmlns:xlink="http://www.w3.org/1999/xlink">
	<desc>
			Created with Pixso.
	</desc>
	<defs/>
	<rect id="Solid mood happy" rx="24.000000" width="48.000000" height="48.000000" fill="#FFCE5C" fill-opacity="1.000000"/>
	<path id="Vector" d="M36 14C37.1 14 38 14.89 38 16L38 22C38 23.1 37.1 24 36 24C34.89 24 34 23.1 34 22L34 16C34 14.89 34.89 14 36 14Z" fill="#705600" fill-opacity="1.000000" fill-rule="evenodd"/>
	<path id="Vector" d="M12 14C13.1 14 14 14.89 14 16L14 22C14 23.1 13.1 24 12 24C10.89 24 10 23.1 10 22L10 16C10 14.89 10.89 14 12 14Z" fill="#705600" fill-opacity="1.000000" fill-rule="evenodd"/>
	<path id="Vector" d="M34.17 28.65C35.24 28.94 35.87 30.03 35.59 31.1C34.9 33.65 33.4 35.91 31.3 37.52C29.2 39.12 26.64 40 24 40C21.35 40 18.79 39.12 16.69 37.52C14.59 35.91 13.09 33.65 12.4 31.1C12.12 30.03 12.75 28.94 13.82 28.65C14.89 28.37 15.98 29 16.27 30.07C16.72 31.77 17.73 33.27 19.12 34.34C20.52 35.41 22.23 36 24 36C25.76 36 27.47 35.41 28.87 34.34C30.26 33.27 31.27 31.77 31.72 30.07C32.01 29 33.11 28.37 34.17 28.65Z" fill="#705600" fill-opacity="1.000000" fill-rule="evenodd"/>
</svg>
