<svg width="48.000000" height="48.000000" viewBox="0 0 48 48" fill="none" xmlns="http://www.w3.org/2000/svg" xmlns:xlink="http://www.w3.org/1999/xlink">
	<desc>
			Created with Pixso.
	</desc>
	<defs/>
	<rect id="Solid mood overjoyed" rx="24.000000" width="48.000000" height="48.000000" fill="#9BB068" fill-opacity="1.000000"/>
	<path id="Vector" d="M31.7 16.45C32.43 16.15 33.21 16 34 16C34.78 16 35.56 16.15 36.29 16.45C37.02 16.75 37.68 17.2 38.24 17.75C38.79 18.31 39.24 18.97 39.54 19.7C39.84 20.43 40 21.21 40 22C40 23.1 39.1 24 38 24C36.89 24 36 23.1 36 22C36 21.73 35.94 21.47 35.84 21.23C35.74 20.99 35.59 20.77 35.41 20.58C35.22 20.4 35 20.25 34.76 20.15C34.52 20.05 34.26 20 34 20C33.73 20 33.47 20.05 33.23 20.15C32.99 20.25 32.77 20.4 32.58 20.58C32.4 20.77 32.25 20.99 32.15 21.23C32.05 21.47 32 21.73 32 22C32 23.1 31.1 24 30 24C28.89 24 28 23.1 28 22C28 21.21 28.15 20.43 28.45 19.7C28.75 18.97 29.2 18.31 29.75 17.75C30.31 17.2 30.97 16.75 31.7 16.45Z" fill="#3D4A26" fill-opacity="1.000000" fill-rule="evenodd"/>
	<path id="Vector" d="M34.17 28.65C35.24 28.94 35.87 30.03 35.59 31.1C34.9 33.65 33.4 35.91 31.3 37.52C29.2 39.12 26.64 39.99 24 39.99C21.35 39.99 18.79 39.12 16.69 37.52C14.59 35.91 13.09 33.65 12.4 31.1C12.12 30.03 12.75 28.94 13.82 28.65C14.89 28.37 15.98 29 16.27 30.07C16.72 31.77 17.73 33.27 19.12 34.34C20.52 35.41 22.23 35.99 24 35.99C25.76 35.99 27.47 35.41 28.87 34.34C30.26 33.27 31.27 31.77 31.72 30.07C32.01 29 33.11 28.37 34.17 28.65Z" fill="#3D4A26" fill-opacity="1.000000" fill-rule="evenodd"/>
	<path id="Vector" d="M11.7 16.45C12.43 16.15 13.21 16 14 16C14.78 16 15.56 16.15 16.29 16.45C17.02 16.75 17.68 17.2 18.24 17.75C18.79 18.31 19.24 18.97 19.54 19.7C19.84 20.43 20 21.21 20 22C20 23.1 19.1 24 18 24C16.89 24 16 23.1 16 22C16 21.73 15.94 21.47 15.84 21.23C15.74 20.99 15.59 20.77 15.41 20.58C15.22 20.4 15 20.25 14.76 20.15C14.52 20.05 14.26 20 14 20C13.73 20 13.47 20.05 13.23 20.15C12.99 20.25 12.77 20.4 12.58 20.58C12.4 20.77 12.25 20.99 12.15 21.23C12.05 21.47 12 21.73 12 22C12 23.1 11.1 24 10 24C8.89 24 8 23.1 8 22C8 21.21 8.15 20.43 8.45 19.7C8.75 18.97 9.2 18.31 9.75 17.75C10.31 17.2 10.97 16.75 11.7 16.45Z" fill="#3D4A26" fill-opacity="1.000000" fill-rule="evenodd"/>
</svg>
