<svg width="48.000000" height="48.000000" viewBox="0 0 48 48" fill="none" xmlns="http://www.w3.org/2000/svg" xmlns:xlink="http://www.w3.org/1999/xlink">
	<desc>
			Created with Pixso.
	</desc>
	<defs/>
	<rect id="Solid chevron double down sm" width="48.000000" height="48.000000" fill="#FFFFFF" fill-opacity="0"/>
	<path id="Vector" d="M32.52 21.1C34.96 19.23 36.72 16.6 37.52 13.62L33.65 12.58C33.08 14.71 31.83 16.59 30.08 17.93C28.34 19.27 26.2 19.99 24 19.99C21.79 19.99 19.65 19.27 17.91 17.93C16.16 16.59 14.91 14.71 14.34 12.58L10.47 13.62C11.27 16.6 13.03 19.23 15.47 21.1C17.92 22.98 20.91 23.99 24 23.99C27.08 23.99 30.07 22.98 32.52 21.1ZM32.52 33.1C34.96 31.23 36.72 28.6 37.52 25.62L33.65 24.58C33.08 26.71 31.83 28.59 30.08 29.93C28.34 31.27 26.2 31.99 24 31.99C21.79 31.99 19.65 31.27 17.91 29.93C16.16 28.59 14.91 26.71 14.34 24.58L10.47 25.62C11.27 28.6 13.03 31.23 15.47 33.1C17.92 34.98 20.91 35.99 24 35.99C27.08 35.99 30.07 34.98 32.52 33.1Z" fill="#1F160F" fill-opacity="0.320000" fill-rule="evenodd"/>
</svg>
