<?xml version="1.0" standalone="no"?><!DOCTYPE svg PUBLIC "-//W3C//DTD SVG 1.1//EN" "http://www.w3.org/Graphics/SVG/1.1/DTD/svg11.dtd"><svg class="icon" width="32px" height="32.00px" viewBox="0 0 1024 1024" version="1.1" xmlns="http://www.w3.org/2000/svg"><path fill="#1296db" d="M510.976 921.9072a419.84 419.84 0 1 1 419.84-419.584 419.84 419.84 0 0 1-419.84 419.584z m0-777.728a358.4 358.4 0 1 0 358.4 358.4 358.4 358.4 0 0 0-358.4-358.4z"  /><path fill="#1296db" d="M394.24 575.0272a30.72 30.72 0 0 1-30.72-30.72V460.288a30.72 30.72 0 0 1 61.44 0v84.0192a30.72 30.72 0 0 1-30.72 30.72zM640.6656 583.68a30.72 30.72 0 0 1-18.7904-6.4512l-65.8944-51.2a30.72 30.72 0 0 1 0-48.5888l64.256-49.7152a30.72 30.72 0 1 1 37.5808 48.4352l-32.8704 25.6 34.56 26.7776a30.72 30.72 0 0 1-18.8416 55.1424z"  /></svg>